<svg width="306" height="29" viewBox="0 0 306 29" fill="none" xmlns="http://www.w3.org/2000/svg">
<path d="M18.925 2.79986C19.333 2.79986 19.669 2.94386 19.933 3.23186C20.221 3.49586 20.365 3.83186 20.365 4.23986V8.09186C20.365 8.88386 20.041 9.27986 19.393 9.27986H18.493C17.845 9.27986 17.521 8.88386 17.521 8.09186V5.64386H12.085V25.1559H13.021C13.813 25.1559 14.209 25.4799 14.209 26.1279V27.0279C14.209 27.6759 13.813 27.9999 13.021 27.9999H7.90897C7.14097 27.9999 6.75697 27.6759 6.75697 27.0279V26.1279C6.75697 25.4799 7.14097 25.1559 7.90897 25.1559H8.84497V5.64386H3.40897V8.09186C3.40897 8.88386 3.08497 9.27986 2.43697 9.27986H1.53697C0.888972 9.27986 0.564972 8.88386 0.564972 8.09186V4.23986C0.564972 3.83186 0.696972 3.49586 0.960972 3.23186C1.22497 2.94386 1.56097 2.79986 1.96897 2.79986H18.925ZM45.5756 25.1559C46.3437 25.1559 46.7277 25.4799 46.7277 26.1279V27.0279C46.7277 27.6759 46.3437 27.9999 45.5756 27.9999H40.4636C39.6956 27.9999 39.3116 27.6759 39.3116 27.0279V26.1279C39.3116 25.4799 39.6956 25.1559 40.4636 25.1559H41.3996V18.2079C41.3996 16.1199 41.1236 14.6439 40.5716 13.7799C40.0436 12.8919 39.1436 12.4479 37.8716 12.4479C36.9836 12.4479 36.1196 12.7479 35.2796 13.3479C34.4636 13.9239 33.7916 14.6799 33.2636 15.6159C32.7596 16.5519 32.5076 17.5359 32.5076 18.5679V25.1559H33.4436C34.2356 25.1559 34.6316 25.4799 34.6316 26.1279V27.0279C34.6316 27.6759 34.2356 27.9999 33.4436 27.9999H28.3676C27.5756 27.9999 27.1796 27.6759 27.1796 27.0279V26.1279C27.1796 25.4799 27.5756 25.1559 28.3676 25.1559H29.3036V4.20386H28.3676C27.5756 4.20386 27.1796 3.87986 27.1796 3.23186V2.33186C27.1796 1.68386 27.5756 1.35986 28.3676 1.35986H31.2116C31.5716 1.35986 31.8716 1.49186 32.1116 1.75586C32.3756 1.99586 32.5076 2.30786 32.5076 2.69186V14.0319C33.0356 12.7839 33.8756 11.7399 35.0276 10.8999C36.1796 10.0599 37.3796 9.63986 38.6276 9.63986C40.6196 9.63986 42.1196 10.3239 43.1276 11.6919C44.1356 13.0359 44.6396 15.0399 44.6396 17.7039V25.1559H45.5756ZM69.5978 18.0999C69.5978 18.2199 69.5618 18.7479 69.4898 19.6839H56.7098C56.8298 21.5079 57.3578 22.9479 58.2938 24.0039C59.2298 25.0359 60.4778 25.5519 62.0378 25.5519C63.0938 25.5519 63.9338 25.3839 64.5578 25.0479C65.1818 24.7119 65.7698 24.1119 66.3218 23.2479C66.5138 22.9599 66.6938 22.7559 66.8618 22.6359C67.0538 22.5159 67.2698 22.4559 67.5098 22.4559C67.8698 22.4559 68.1818 22.5759 68.4458 22.8159C68.7338 23.0319 68.8778 23.3079 68.8778 23.6439C68.8778 24.0999 68.7098 24.5679 68.3738 25.0479C67.6778 26.1759 66.8138 27.0159 65.7818 27.5679C64.7498 28.0959 63.4658 28.3599 61.9298 28.3599C60.2258 28.3599 58.7258 27.9639 57.4298 27.1719C56.1578 26.3799 55.1618 25.2639 54.4418 23.8239C53.7458 22.3839 53.3978 20.7279 53.3978 18.8559C53.3978 17.0079 53.7458 15.3879 54.4418 13.9959C55.1378 12.6039 56.1218 11.5359 57.3938 10.7919C58.6658 10.0239 60.1418 9.63986 61.8218 9.63986C64.1498 9.63986 66.0218 10.3839 67.4378 11.8719C68.8778 13.3599 69.5978 15.4359 69.5978 18.0999ZM61.7498 12.3039C60.3338 12.3039 59.1938 12.7359 58.3298 13.5999C57.4898 14.4399 56.9738 15.6639 56.7818 17.2719H66.3218C66.2978 13.9599 64.7738 12.3039 61.7498 12.3039ZM266.519 2.79986C270.359 2.79986 273.311 3.84386 275.375 5.93186C277.463 7.99586 278.507 10.9599 278.507 14.8239C278.507 17.4879 278.015 19.8159 277.031 21.8079C276.047 23.7759 274.643 25.2999 272.819 26.3799C270.995 27.4599 268.859 27.9999 266.411 27.9999H258.275C257.483 27.9999 257.087 27.6759 257.087 27.0279V26.1279C257.087 25.4799 257.483 25.1559 258.275 25.1559H259.211V5.64386H258.275C257.483 5.64386 257.087 5.31986 257.087 4.67186V3.77186C257.087 3.12386 257.483 2.79986 258.275 2.79986H266.519ZM266.087 25.1559C269.015 25.1559 271.259 24.2679 272.819 22.4919C274.403 20.7159 275.195 18.1959 275.195 14.9319C275.195 11.7879 274.463 9.45986 272.999 7.94786C271.535 6.41186 269.303 5.64386 266.303 5.64386H262.451V25.1559H266.087ZM301.066 14.2839C302.65 14.6919 303.862 15.4239 304.702 16.4799C305.566 17.5359 305.998 18.8319 305.998 20.3679C305.998 22.7679 305.098 24.6399 303.298 25.9839C301.498 27.3279 298.978 27.9999 295.738 27.9999H287.926C287.134 27.9999 286.738 27.6759 286.738 27.0279V26.1279C286.738 25.4799 287.134 25.1559 287.926 25.1559H288.862V5.64386H287.926C287.134 5.64386 286.738 5.31986 286.738 4.67186V3.77186C286.738 3.12386 287.134 2.79986 287.926 2.79986H296.134C301.942 2.79986 304.846 4.77986 304.846 8.73986C304.846 9.96386 304.522 11.0439 303.874 11.9799C303.226 12.9159 302.29 13.6839 301.066 14.2839ZM292.102 5.64386V13.4559H295.702C297.598 13.4559 299.038 13.1079 300.022 12.4119C301.03 11.6919 301.534 10.6599 301.534 9.31586C301.534 7.99586 301.09 7.05986 300.202 6.50786C299.314 5.93186 297.838 5.64386 295.774 5.64386H292.102ZM295.27 25.1559C297.862 25.1559 299.746 24.7719 300.922 24.0039C302.098 23.2359 302.686 21.9999 302.686 20.2959C302.686 17.6319 300.682 16.2999 296.674 16.2999H292.102V25.1559H295.27Z" fill="#3F0528"/>
<path d="M94.2122 19.324C94.9562 19.324 95.5802 19.528 96.0842 19.936C96.6122 20.344 96.8762 20.872 96.8762 21.52C96.8762 21.832 96.7922 22.252 96.6242 22.78C96.4802 23.284 96.2882 23.728 96.0482 24.112C95.1842 25.576 94.0922 26.656 92.7722 27.352C91.4522 28.024 89.8202 28.36 87.8762 28.36C85.6442 28.36 83.7002 27.82 82.0442 26.74C80.3882 25.66 79.1162 24.124 78.2282 22.132C77.3402 20.14 76.8962 17.824 76.8962 15.184C76.8962 12.568 77.3282 10.3 78.1922 8.38003C79.0562 6.46003 80.3162 4.99603 81.9722 3.98803C83.6282 2.95603 85.6082 2.44003 87.9122 2.44003C89.5922 2.44003 91.1162 2.70403 92.4842 3.23203C93.8522 3.76003 94.9202 4.50403 95.6882 5.46403C96.4802 6.40003 96.8762 7.45603 96.8762 8.63203C96.8762 9.73603 96.5522 10.636 95.9042 11.332C95.2562 12.004 94.4042 12.34 93.3482 12.34C92.2922 12.34 91.4402 12.052 90.7922 11.476C90.1442 10.9 89.8202 10.132 89.8202 9.17203C89.8202 8.66803 89.9042 8.21203 90.0722 7.80403C89.5682 7.54003 88.8842 7.40803 88.0202 7.40803C86.2442 7.40803 84.9722 8.02003 84.2042 9.24403C83.4362 10.468 83.0522 12.4 83.0522 15.04C83.0522 17.848 83.4722 19.948 84.3122 21.34C85.1522 22.708 86.4842 23.392 88.3082 23.392C89.1482 23.392 89.8442 23.212 90.3962 22.852C90.9722 22.468 91.4642 21.856 91.8722 21.016C92.2082 20.344 92.5322 19.9 92.8442 19.684C93.1802 19.444 93.6362 19.324 94.2122 19.324ZM112.583 28.36C109.703 28.36 107.471 27.568 105.887 25.984C104.327 24.376 103.547 22.12 103.547 19.216C103.547 16.216 104.375 13.876 106.031 12.196C107.687 10.492 110.003 9.64003 112.979 9.64003C115.859 9.64003 118.079 10.432 119.639 12.016C121.199 13.6 121.979 15.844 121.979 18.748C121.979 21.748 121.151 24.1 119.495 25.804C117.839 27.508 115.535 28.36 112.583 28.36ZM112.619 23.5C113.771 23.5 114.611 23.128 115.139 22.384C115.667 21.64 115.931 20.452 115.931 18.82C115.931 17.332 115.679 16.24 115.175 15.544C114.695 14.848 113.939 14.5 112.907 14.5C110.699 14.5 109.595 16.048 109.595 19.144C109.595 22.048 110.603 23.5 112.619 23.5ZM142.423 21.7C143.047 21.7 143.575 21.88 144.007 22.24C144.439 22.576 144.655 23.056 144.655 23.68C144.655 24.4 144.439 25.036 144.007 25.588C143.407 26.38 142.567 27.04 141.487 27.568C140.431 28.096 139.183 28.36 137.743 28.36C135.775 28.36 134.071 27.976 132.631 27.208C131.215 26.416 130.135 25.312 129.391 23.896C128.647 22.456 128.275 20.8 128.275 18.928C128.275 17.032 128.659 15.388 129.427 13.996C130.219 12.58 131.311 11.5 132.703 10.756C134.095 10.012 135.679 9.64003 137.455 9.64003C138.871 9.64003 140.155 9.89203 141.307 10.396C142.483 10.9 143.407 11.596 144.079 12.484C144.751 13.372 145.087 14.356 145.087 15.436C145.087 16.396 144.763 17.188 144.115 17.812C143.467 18.412 142.615 18.712 141.559 18.712C140.503 18.712 139.651 18.424 139.003 17.848C138.355 17.272 138.031 16.504 138.031 15.544C138.031 15.328 138.055 15.052 138.103 14.716C137.839 14.572 137.515 14.5 137.131 14.5C135.259 14.5 134.323 15.952 134.323 18.856C134.323 20.248 134.647 21.376 135.295 22.24C135.943 23.08 136.855 23.5 138.031 23.5C138.631 23.5 139.111 23.428 139.471 23.284C139.831 23.116 140.239 22.84 140.695 22.456C141.319 21.952 141.895 21.7 142.423 21.7ZM170.325 23.032C170.853 23.032 171.273 23.164 171.585 23.428C171.921 23.692 172.089 24.112 172.089 24.688V26.344C172.089 26.92 171.921 27.34 171.585 27.604C171.273 27.868 170.853 28 170.325 28H166.041C165.777 28 165.525 27.94 165.285 27.82C165.069 27.7 164.889 27.532 164.745 27.316L159.057 19.252V23.032H159.561C160.089 23.032 160.509 23.164 160.821 23.428C161.157 23.692 161.325 24.112 161.325 24.688V26.344C161.325 26.92 161.157 27.34 160.821 27.604C160.509 27.868 160.089 28 159.561 28H152.613C152.085 28 151.653 27.868 151.317 27.604C151.005 27.34 150.849 26.92 150.849 26.344V24.688C150.849 24.112 151.005 23.692 151.317 23.428C151.653 23.164 152.085 23.032 152.613 23.032H153.117V6.32803H152.613C152.085 6.32803 151.653 6.19603 151.317 5.93203C151.005 5.66803 150.849 5.24803 150.849 4.67203V3.01603C150.849 2.44003 151.005 2.02003 151.317 1.75603C151.653 1.49203 152.085 1.36003 152.613 1.36003H157.221C157.749 1.36003 158.181 1.54003 158.517 1.90003C158.877 2.23603 159.057 2.66803 159.057 3.19603V18.352L161.757 16.12C162.693 15.352 163.665 14.968 164.673 14.968H162.765C162.237 14.968 161.805 14.836 161.469 14.572C161.157 14.308 161.001 13.888 161.001 13.312V11.656C161.001 11.08 161.157 10.66 161.469 10.396C161.805 10.132 162.237 10 162.765 10H170.073C170.601 10 171.021 10.132 171.333 10.396C171.669 10.66 171.837 11.08 171.837 11.656V13.312C171.837 13.888 171.669 14.308 171.333 14.572C171.021 14.836 170.601 14.968 170.073 14.968H169.137L165.285 18.028L168.813 23.032H170.325ZM191.505 21.556C192.153 21.556 192.705 21.76 193.161 22.168C193.641 22.576 193.881 23.08 193.881 23.68C193.881 24.376 193.665 25.012 193.233 25.588C191.841 27.436 190.041 28.36 187.833 28.36C183.033 28.36 180.633 25.708 180.633 20.404V14.86H179.481C178.953 14.86 178.509 14.692 178.149 14.356C177.813 13.996 177.645 13.552 177.645 13.024V11.836C177.645 11.308 177.813 10.876 178.149 10.54C178.509 10.18 178.953 10 179.481 10H180.633V6.83203C180.633 6.30403 180.801 5.87203 181.137 5.53603C181.497 5.17603 181.941 4.99603 182.469 4.99603H184.737C185.265 4.99603 185.697 5.17603 186.033 5.53603C186.393 5.87203 186.573 6.30403 186.573 6.83203V10H190.101C190.629 10 191.061 10.18 191.397 10.54C191.757 10.876 191.937 11.308 191.937 11.836V13.024C191.937 13.552 191.757 13.996 191.397 14.356C191.061 14.692 190.629 14.86 190.101 14.86H186.573V21.412C186.573 22.036 186.717 22.54 187.005 22.924C187.293 23.308 187.665 23.5 188.121 23.5C188.481 23.5 188.793 23.416 189.057 23.248C189.321 23.08 189.597 22.816 189.885 22.456C190.125 22.144 190.353 21.916 190.569 21.772C190.809 21.628 191.121 21.556 191.505 21.556ZM216.393 23.032C216.921 23.032 217.341 23.164 217.653 23.428C217.989 23.692 218.157 24.112 218.157 24.688V26.344C218.157 26.92 217.989 27.34 217.653 27.604C217.341 27.868 216.921 28 216.393 28H211.785C211.257 28 210.813 27.832 210.453 27.496C210.117 27.136 209.949 26.692 209.949 26.164V24.688C209.469 25.792 208.773 26.68 207.861 27.352C206.973 28.024 206.013 28.36 204.981 28.36C203.349 28.36 202.029 27.868 201.021 26.884C200.013 25.9 199.509 24.604 199.509 22.996C199.509 21.124 200.097 19.756 201.273 18.892C202.473 18.004 204.333 17.56 206.853 17.56C207.717 17.56 208.749 17.656 209.949 17.848V16.66C209.949 15.892 209.721 15.28 209.265 14.824C208.833 14.368 208.233 14.14 207.465 14.14C207.009 14.14 206.637 14.224 206.349 14.392C206.157 15.064 205.785 15.616 205.233 16.048C204.705 16.456 204.081 16.66 203.361 16.66C202.449 16.66 201.705 16.396 201.129 15.868C200.577 15.34 200.301 14.656 200.301 13.816C200.301 12.52 200.949 11.5 202.245 10.756C203.541 10.012 205.245 9.64003 207.357 9.64003C210.189 9.64003 212.313 10.336 213.729 11.728C215.169 13.12 215.889 15.088 215.889 17.632V23.032H216.393ZM206.925 24.148C207.669 24.148 208.329 23.824 208.905 23.176C209.481 22.504 209.817 21.676 209.913 20.692C209.097 20.596 208.377 20.548 207.753 20.548C206.913 20.548 206.313 20.704 205.953 21.016C205.617 21.328 205.449 21.856 205.449 22.6C205.449 23.056 205.593 23.428 205.881 23.716C206.169 24.004 206.517 24.148 206.925 24.148ZM228.603 8.02003C227.571 8.02003 226.695 7.67203 225.975 6.97603C225.279 6.25603 224.931 5.38003 224.931 4.34803C224.931 3.29203 225.279 2.41603 225.975 1.72003C226.695 1.02403 227.571 0.676025 228.603 0.676025C229.659 0.676025 230.535 1.02403 231.231 1.72003C231.927 2.41603 232.275 3.29203 232.275 4.34803C232.275 5.38003 231.927 6.25603 231.231 6.97603C230.535 7.67203 229.659 8.02003 228.603 8.02003ZM225.795 28C225.267 28 224.835 27.868 224.499 27.604C224.187 27.34 224.031 26.92 224.031 26.344V24.688C224.031 24.112 224.187 23.692 224.499 23.428C224.835 23.164 225.267 23.032 225.795 23.032H226.299V14.968H225.795C225.267 14.968 224.835 14.836 224.499 14.572C224.187 14.308 224.031 13.888 224.031 13.312V11.656C224.031 11.08 224.187 10.66 224.499 10.396C224.835 10.132 225.267 10 225.795 10H230.403C230.931 10 231.363 10.18 231.699 10.54C232.059 10.876 232.239 11.308 232.239 11.836V23.032H232.743C233.271 23.032 233.691 23.164 234.003 23.428C234.339 23.692 234.507 24.112 234.507 24.688V26.344C234.507 26.92 234.339 27.34 234.003 27.604C233.691 27.868 233.271 28 232.743 28H225.795ZM241.65 28C241.122 28 240.69 27.868 240.354 27.604C240.042 27.34 239.886 26.92 239.886 26.344V24.688C239.886 24.112 240.042 23.692 240.354 23.428C240.69 23.164 241.122 23.032 241.65 23.032H242.154V6.32803H241.65C241.122 6.32803 240.69 6.19603 240.354 5.93203C240.042 5.66803 239.886 5.24803 239.886 4.67203V3.01603C239.886 2.44003 240.042 2.02003 240.354 1.75603C240.69 1.49203 241.122 1.36003 241.65 1.36003H246.258C246.786 1.36003 247.218 1.54003 247.554 1.90003C247.914 2.23603 248.094 2.66803 248.094 3.19603V23.032H248.598C249.126 23.032 249.546 23.164 249.858 23.428C250.194 23.692 250.362 24.112 250.362 24.688V26.344C250.362 26.92 250.194 27.34 249.858 27.604C249.546 27.868 249.126 28 248.598 28H241.65Z" fill="url(#paint0_angular)"/>
<defs>
<radialGradient id="paint0_angular" cx="0" cy="0" r="1" gradientUnits="userSpaceOnUse" gradientTransform="translate(163.629 14.518) rotate(95.0279) scale(64.2291 402.455)">
<stop stop-color="#921560"/>
<stop offset="0.0001" stop-color="#B45F19"/>
<stop offset="0.239583" stop-color="#167025"/>
<stop offset="0.504781" stop-color="#FA8900"/>
<stop offset="0.713542" stop-color="#7E0E22"/>
<stop offset="1" stop-color="#0E2F4D"/>
</radialGradient>
</defs>
</svg>
