 <svg width="435" height="134" viewBox="0 0 435 134" class="PostmatesCardDesign__graphic">
    <g transform="translate(.797 17.43)" fill="none">
      <circle fill="#FFF33D" cx="379.84" cy="60.94" r="54" data-js-target-list="PostmatesCardDesign.graphicShapes" data-js-order="9" style="transform-origin: 380.64px 78.37px;" />
      <path d="M285.75 19.22H296v7.05a5.13 5.13 0 1 1-10.25 0v-7.05z" fill="#E8E9E9" data-js-target-list="PostmatesCardDesign.graphicShapes" data-js-order="8" style="transform-origin: 291.675px 42.735px;" />
      <path d="M201.26 21.74h21.26a9.47 9.47 0 0 1 0 18.94h-5.9a15.37 15.37 0 0 1-15.36-15.36v-3.58z" fill="#FFF33D" data-js-target-list="PostmatesCardDesign.graphicShapes" data-js-order="7" style="transform-origin: 217.425px 48.645px;" />
      <path d="M167.86 15.37v3.58h21.26a9.47 9.47 0 0 0 0-18.95h-5.9a15.37 15.37 0 0 0-15.36 15.37z" fill="#E8E9E9" data-js-target-list="PostmatesCardDesign.graphicShapes" data-js-order="6" style="transform-origin: 184.025px 26.905px;" />
      <path d="M94.82 18.95h10.58a4.8 4.8 0 0 0 0-9.61h-2.89a7.69 7.69 0 0 0-7.69 7.69v1.92z" fill="#E8E9E9" data-js-target-list="PostmatesCardDesign.graphicShapes" data-js-order="3" style="transform-origin: 103.31px 31.575px;" />
      <path d="M105.4 23.38v-8.32h6.08a4.16 4.16 0 0 1 0 8.32h-6.09z" fill="#FFF33D" data-js-target-list="PostmatesCardDesign.graphicShapes" data-js-order="4" style="transform-origin: 111.315px 36.655px;" />
      <circle fill="#6E6F71" cx="115.65" cy="19.54" r="2.24" data-js-target-list="PostmatesCardDesign.graphicShapes" data-js-order="5" style="transform-origin: 116.44px 36.97px;" />
      <path d="M17.3 32.03a3.84 3.84 0 0 1 3.84 3.85v.64h-7.69v-.64a3.84 3.84 0 0 1 3.85-3.85z" fill="#959698" data-js-target-list="PostmatesCardDesign.graphicShapes" data-js-order="2" style="transform-origin: 18.095px 51.7px;" />
      <circle fill="#FFF33D" cx="7.37" cy="32.35" r="1.6" data-js-target-list="PostmatesCardDesign.graphicShapes" data-js-order="1" style="transform-origin: 8.16px 49.78px;" />
      <path d="M3.84 44.2a3.84 3.84 0 0 0 3.85-3.84v-.64H0v.64a3.84 3.84 0 0 0 3.84 3.85z" fill="#959698" data-js-target-list="PostmatesCardDesign.graphicShapes" data-js-order="0" style="transform-origin: 4.645px 59.39px;" />
    </g>
  </svg>