<svg xmlns="http://www.w3.org/2000/svg" viewBox="0 0 200 40" class="UserLogo variant-- "><title>Nalli logo</title><path fill="currentColor" fill-rule="evenodd" d="M94.134 4.105s-1.78 1.104-2.939 5.064l-5.588 24.972-4.122-17.482-4.807 19.123s-.172.444-.465 1.045l-.123.248c-.866 1.7-2.547 4.234-4.09 2.123 0 0 4.123-3.28 4.26-6.561L82.45 6.281 86.437 23.9l3.849-16.523s.998-6.04 3.848-3.272zM116.28.544c.195.004 2.897.23-.155 10.25 0 0-.959 5.048-4.944 10.93 0 0 .966 4.368 3.575-.825 0 0 1.787-9.561 4.807-8.873 0 0 1.24.272.137 2.592 0 0-2.883 6.01-1.232 7.105 0 0 .547.68 2.335-1.504 1.272.384-.113 2.184-2.198 2.913-2.094.744-3.358-.833-3.358-.833s-2.697 5.001-5.99 2.545c0 0-3.978 5.545-7.336 1.96 0 0-4.001 7.465-7.705 3.913 0 0-2.094 2.168-3.776 1.832 0 0-1.345-.328-1.925-1.992-.644-1.817-.241-4.913 3.551-8.842 0 0 2.142-2.144 5.218-.824 0 0 1.787.28.966 3.28 0 0-1.377 4.785-.41 4.785 0 0 1.65.273 3.292-3.008 0 0-3.02-14.746 5.508-23.492 0 0 2.48-1.096 2.617 3.417 0 0-.42 8.193-5.5 17.483 0 0 1.369 5.328 4.944.272l-.004-.02c-.082-.385-1.284-6.375 1.107-13.502 0 0 2.472-9.426 6.466-9.562zM94.956 23.492c.016-1.257-.653-1.257-.653-1.249-3.357 3.409-2.85 7.994-2.85 7.994 2.593 1.088 3.503-6.745 3.503-6.745zm12.657-14.339c.958-4.104-.137-3.688-.137-3.688-3.508 4.378-4.024 10.497-4.046 13.496v.339c.004.915.052 1.463.052 1.463 1.103-.544 4.123-11.61 4.13-11.61zm8.51-4.64c.146-1.777-.547-.688-.547-.688-4.402 6.099-4.658 15.29-4.67 15.826v.024c4.525-6.289 5.218-15.162 5.218-15.162zm4.26.944c.99 0 1.796.8 1.796 1.776a1.78 1.78 0 01-1.796 1.776c-.974 0-1.78-.792-1.78-1.776 0-.976.806-1.776 1.78-1.776zM125.109 0a3.03 3.03 0 011.514.4c.443.272.79.64 1.023 1.112.241.48.354 1.008.354 1.616 0 .609-.12 1.153-.37 1.64-.25.48-.596.84-1.055 1.089-.451.248-.942.368-1.474.368-.563 0-1.079-.128-1.53-.408a2.557 2.557 0 01-1.022-1.12 3.48 3.48 0 01-.338-1.505c0-1 .265-1.784.805-2.344.54-.568 1.24-.848 2.093-.848zm0 .68c-.571 0-1.062.192-1.473.584-.403.384-.604 1.032-.612 1.928 0 .72.185 1.289.588 1.713a1.93 1.93 0 001.473.632c.612 0 1.103-.208 1.498-.632.394-.416.588-1.008.588-1.793 0-.488-.08-.912-.258-1.28a1.77 1.77 0 00-.725-.84A1.953 1.953 0 00125.11.68zm.08 1.12c.275 0 .476.024.605.072a.623.623 0 01.306.248c.072.12.104.248.104.408a.72.72 0 01-.16.48c-.121.136-.29.216-.516.24.12.073.21.145.282.217.064.096.169.232.29.432l.322.504h-.636l-.37-.568a5.08 5.08 0 00-.274-.376.578.578 0 00-.161-.112c-.057-.008-.137-.024-.258-.024h-.105v1.072h-.531V1.8zm-.067.449h-.496v.663h.387c.241 0 .402-.016.467-.032a.277.277 0 00.145-.112.34.34 0 00.048-.192c0-.088-.024-.16-.072-.208a.327.327 0 00-.194-.104 2.975 2.975 0 00-.386-.016z"/></svg>