<svg xmlns="http://www.w3.org/2000/svg" viewBox="0 0 200 40" class="UserLogo variant-- "><title>InVideo logo</title><g fill="none" fill-rule="nonzero"><path fill="#211D70" d="M129.902 11.3v17.725h-3.056V27.6h-.203c-.306.51-.713.917-1.325 1.325a4.735 4.735 0 01-2.139.509c-.815 0-1.63-.102-2.343-.408a5.32 5.32 0 01-1.935-1.426 5.886 5.886 0 01-1.325-2.037c-.305-.815-.407-1.63-.407-2.547 0-1.018.102-1.833.407-2.648.306-.815.815-1.426 1.325-2.038.509-.61 1.222-1.018 1.935-1.324.713-.407 1.528-.51 2.343-.51.815.103 1.528.204 2.14.612a3.096 3.096 0 011.324 1.222v-5.908c0-.611.509-1.12 1.12-1.12h2.14zm7.946 5.196c.917 0 1.834.203 2.547.51.815.305 1.426.814 1.935 1.323.51.612.917 1.223 1.12 2.038.306.815.408 1.63.408 2.546v.815h-9.168c.102.51.204.917.408 1.325a3.1 3.1 0 00.815.815c.305.305.61.407 1.018.509.306.102.713.204 1.019.204.815 0 1.426-.204 1.935-.51.408-.305.815-.815 1.12-1.324l2.65 1.324v.102c-.51.917-1.325 1.732-2.242 2.343-.916.611-2.139.917-3.463.917-.917 0-1.732-.102-2.547-.51-.815-.305-1.528-.712-2.037-1.324-.611-.61-1.019-1.222-1.426-2.037-.306-.815-.408-1.63-.408-2.547 0-.917.102-1.731.408-2.546.305-.713.815-1.427 1.324-2.038.611-.611 1.222-1.018 2.037-1.426a6.673 6.673 0 012.547-.51zm13.854 0c.917 0 1.834.203 2.649.51.713.305 1.426.814 2.037 1.323.51.612.917 1.223 1.324 2.038.306.815.408 1.63.408 2.648 0 .917-.102 1.732-.408 2.547-.407.815-.815 1.528-1.324 2.037-.611.612-1.324 1.019-2.037 1.325-.815.407-1.732.509-2.649.509s-1.834-.102-2.547-.51c-.815-.305-1.528-.712-2.037-1.324-.611-.509-1.019-1.222-1.324-2.037-.306-.815-.51-1.63-.51-2.547 0-1.018.204-1.833.51-2.648.305-.815.713-1.426 1.324-2.038a5.886 5.886 0 012.037-1.324 6.673 6.673 0 012.547-.51zm-68.251.407v12.122h-3.26V17.922c0-.51.407-1.019 1.019-1.019h2.24zm9.066-.407c.713 0 1.426.102 1.935.407.612.204 1.121.611 1.427 1.019.407.51.713 1.019.916 1.63.102.713.204 1.324.204 2.139v7.334h-3.26v-6.927c0-.916-.101-1.528-.509-1.935-.407-.407-1.019-.611-1.732-.611-.407 0-.815.102-1.12.204-.408.203-.713.509-.917.814a3.766 3.766 0 00-.51 1.121c-.178.357-.2.791-.203 1.235v6.1h-3.26V18.023c0-.611.51-1.12 1.12-1.12h1.936v1.63h.204a5.456 5.456 0 011.528-1.529c.611-.306 1.324-.51 2.241-.51zm7.029.407c.917 0 1.63.51 1.935 1.325l2.547 6.417h.204l2.343-6.01c.407-1.019 1.426-1.732 2.445-1.732h1.833l-5.195 12.122H102.5l-5.195-12.122h2.24zm15.79 0v12.122h-3.26V18.533c0-.917.713-1.63 1.63-1.63h1.63zm8.437 2.65l-.186-.001c-.408 0-.815 0-1.223.204-.305.203-.713.407-1.019.713-.305.305-.509.61-.713 1.12-.178.357-.2.791-.203 1.235v.191c0 .51 0 1.019.203 1.426.204.408.408.815.713 1.02.306.305.714.61 1.02.712.407.204.814.306 1.222.306.509 0 .916-.102 1.222-.306a2.428 2.428 0 001.12-.611c.204-.306.51-.713.714-1.12.101-.408.203-.917.203-1.427 0-.61-.102-1.018-.203-1.528-.204-.407-.51-.713-.713-1.018-.306-.306-.714-.51-1.121-.713-.267-.179-.613-.201-1.036-.204zm28.104 0l-.175-.001c-.407 0-.815 0-1.222.204-.306.203-.713.407-1.02.713-.305.305-.508.61-.712 1.018-.102.51-.204.917-.204 1.528 0 .51.102 1.019.204 1.426.204.408.407.815.713 1.121.306.306.713.51 1.019.611.407.204.815.306 1.222.306.408 0 .815-.102 1.222-.306.408-.102.714-.305 1.02-.611.305-.306.508-.713.712-1.12.204-.408.306-.917.306-1.427 0-.61-.102-1.018-.306-1.528a3.659 3.659 0 00-.713-1.018 3.659 3.659 0 00-1.019-.713c-.349-.175-.698-.2-1.047-.204zm-14.029-.409c-.713 0-1.324.204-1.834.612-.509.407-.916.916-1.12 1.63h5.806c0-.204 0-.408-.203-.714a3.096 3.096 0 00-.51-.713c-.203-.203-.51-.407-.917-.611a3.8 3.8 0 00-1.222-.204zm-56.027-7.843c.51 0 1.019.203 1.426.61.407.408.611.918.611 1.529 0 .51-.204 1.018-.611 1.426a2.011 2.011 0 01-1.426.611c-.306 0-.611 0-.815-.204-.306-.102-.51-.203-.713-.407-.204-.204-.306-.408-.408-.611-.101-.306-.203-.51-.203-.815 0-.306.102-.611.203-.815.102-.306.204-.51.408-.713.204-.204.407-.306.713-.408a1.92 1.92 0 01.815-.203zm31.884 0c.612 0 1.121.203 1.528.61.408.408.612.918.612 1.529 0 .51-.204 1.018-.612 1.426-.407.407-.916.611-1.528.611-.305 0-.509 0-.815-.204-.203-.102-.407-.203-.61-.407-.204-.204-.408-.408-.51-.611-.102-.306-.102-.51-.102-.815 0-.306 0-.611.102-.815.102-.306.306-.51.51-.713.203-.204.407-.306.61-.408.306-.102.51-.203.815-.203z"/><path fill="#3399FF" d="M52.381 31.674c-.713-.102-1.324-.306-2.037-.407v6.01c0 .51.51.713.917.407l6.417-5.5c-1.731 0-3.463-.103-5.297-.51"/><path fill="#99CC33" d="M71.125 19.756l-.815-.714c-2.547 2.445-6.316 4.38-10.696 5.094-3.362.51-6.52.305-9.27-.408v7.539c.713.101 1.324.305 2.037.407 1.834.407 3.566.51 5.297.51l13.447-11.715a.492.492 0 000-.713"/><path fill="#211D70" d="M55.233 17.82c-1.63.713-3.26 1.12-4.89 1.426v4.482c2.751.713 5.91.917 9.27.408 4.381-.713 8.15-2.649 10.697-5.094l-7.64-6.62c-1.732 2.24-4.38 4.074-7.437 5.398"/><path fill="#3399FF" d="M58.697 8.958l-6.01-5.196L51.26 2.54c-.408-.306-.917 0-.917.407v16.299c1.63-.305 3.26-.713 4.89-1.426 3.055-1.324 5.704-3.158 7.436-5.399l-3.973-3.463zM47.492 19.246h.101v-.102l1.427-2.24h.101l-.101-.103-5.501-1.324h-.102c-.102 0 0 .102 0 .102l4.075 3.667z"/><path fill="#99CC33" d="M49.325 18.33l-.102.101-6.723 10.39v.103h.102l6.723-1.63c.102 0 .102 0 .102-.102v-8.76l-.102-.103"/><path fill="#FFFFFF" d="M66.439 18.431c0 .51-.408.917-.917.917-.407 0-.815-.407-.815-.917 0-.407.408-.815.815-.815.51 0 .917.408.917.815"/></g></svg>