<svg xmlns="http://www.w3.org/2000/svg" viewBox="0 0 200 40" class="UserLogo variant-- "><title>Jaypore logo</title><path fill="currentColor" fill-rule="nonzero" d="M35.25 11.583c.467-.32 6.387-.408 7.117-.116.729.291.233.7-.846.7h-.963l-.116 9.1c-.088 10.295-.088 10.295-2.334 11.9-1.72 1.254-3.237 1.604-5.191 1.195-1.925-.379-3.238-1.487-2.742-2.304.175-.262.642-.496 1.02-.496.526 0 .73.175.817.73.117.875.496 1.166 1.575 1.166 1.021 0 2.188-.583 3.121-1.604l.73-.787V12.313l-.876-.088c-.466-.058-1.079-.146-1.312-.233-.38-.117-.38-.175 0-.409zm18.375 8.05c2.275-5.745 3.412-8.283 3.587-8.02.047.074.24.508.541 1.208l.135.316c.66 1.547 1.721 4.102 2.854 6.905l3.295 8.02 1.225.263c2.217.525 1.225.758-3.208.758h-.3c-3.142-.005-4.072-.096-3.987-.379.087-.175.729-.379 1.487-.437.758-.059 1.371-.175 1.371-.292 0-.117-.35-1.225-.788-2.48l-.816-2.274-2.917.087-2.887.088-.788 2.041c-.992 2.509-1.02 2.771-.175 2.771 1.021 0 1.954.321 1.78.613-.176.32-5.747.35-6.067.058-.117-.117.35-.35 1.05-.525l1.254-.292zm116.054-8.341l.175 1.546c.233 1.808.117 2.974-.292 2.974-.145 0-.35-.408-.437-.875-.292-1.341-.846-2.187-1.633-2.479-.409-.175-2.246-.291-4.084-.291h-3.325v7.583h2.227c2.084-.017 2.426-.295 2.877-2.158.555-2.13.875-1.313.963 2.508.01.574.018 1.064.02 1.482v.393c-.01 1.481-.108 1.858-.37 1.858-.233 0-.496-.437-.613-1.108-.32-1.75-.816-2.1-3.12-2.1h-1.984v7.583h3.325c1.838 0 3.675-.116 4.084-.291.787-.292 1.341-1.138 1.604-2.45.116-.467.35-.905.554-.992.38-.117.467 1.633.175 3.5l-.204 1.108h-7.441c-4.197-.006-6.796-.121-6.91-.291-.116-.175.176-.292.7-.292.584 0 .992-.204 1.197-.554.175-.35.291-3.354.291-7.759v-.363c-.006-4.206-.121-7.055-.291-7.395-.205-.35-.613-.554-1.167-.554-.496 0-.875-.146-.875-.292 0-.175 2.625-.291 7.262-.291h7.292zm-86.712 0c1.633 0 2.741.116 2.741.291 0 .146-.379.292-.816.292-1.109 0-1.4.35-3.909 4.958l-2.129 3.938-.117 3.441c-.116 3.85.059 4.288 1.605 4.288.554 0 .991.117.991.292 0 .162-1.684.262-3.507.284l-.55.004c-1.926.007-3.835-.074-3.934-.26-.088-.145.379-.32 1.02-.408.642-.087 1.284-.233 1.371-.35.117-.116.263-1.545.292-3.237l.117-3.004-2.684-4.696c-2.625-4.608-3.179-5.25-4.346-5.25-.35 0-.612-.146-.612-.292 0-.175 1.487-.291 3.908-.291 2.304 0 3.996.116 4.113.291.116.175-.204.292-.788.292-.525 0-1.137.117-1.341.263-.467.291-.263.758 2.216 4.929 1.4 2.362 1.634 2.625 1.954 2.187 1.342-2.042 3.675-6.62 3.53-6.97-.088-.234-.555-.409-1.196-.409-.642 0-.992-.117-.875-.292.087-.175 1.4-.291 2.946-.291zm9.041.233c.117-.204 1.809-.262 4.609-.175 3.675.117 4.637.233 5.775.73 1.691.758 2.333 1.72 2.333 3.44 0 2.86-2.13 4.463-5.95 4.492l-1.983.03v4.33c0 3.885.033 4.114 1.46 4.127l.319.001c.525 0 .816.117.7.292-.234.379-7.438.379-7.438.029 0-.175.438-.321.963-.38l.933-.087.088-8.079.058-8.08-1.02-.203c-.584-.088-.934-.321-.847-.467zm41.709-.03c.32-.32 7.495-.232 9.158.118 3.53.758 4.87 3.937 2.567 6.095-.759.73-2.392 1.459-3.18 1.459-.875 0-.641.525.321.729 2.013.437 3.18 2.304 3.675 5.833.088.788.321 1.692.467 1.954.38.73 1.02.642.992-.146-.03-.495.145-.67.729-.729 1.487-.175 1.312 1.721-.204 2.1-.934.234-2.334-.029-3.267-.641-.992-.642-1.517-1.896-1.983-4.521-.467-2.625-.875-3.267-2.421-3.704-1.69-.483-1.777-.645-1.78 2.897v1.564l.002.506c.01 3.305.126 3.481 1.432 3.49l.2.001c.38 0 .7.117.7.292 0 .379-7.204.379-7.438 0-.116-.175.175-.292.642-.292h.202c1.373-.004 1.37-.233 1.286-8.313l-.088-7.816-1.108-.321c-.642-.175-1.021-.408-.904-.554zm-16.13.118c1.838-.38 2.246-.35 4.142.116 3.821 1.021 6.3 4.23 6.358 8.254.03 3.325-1.254 5.95-3.762 7.584-4.608 3.091-11.404.816-13.125-4.375-.613-1.896-.467-5.484.32-7.088 1.11-2.275 3.384-3.966 6.067-4.491zm2.946.525c-1.458-.321-1.487-.321-2.887.175-2.625.933-3.792 3.645-3.588 8.574.088 2.421.263 3.355.73 4.259 2.216 4.2 7.116 4.404 9.129.408 1.283-2.479 1.283-7.525.029-10.296-.7-1.575-2.042-2.8-3.413-3.12zM56.25 16.454c-.175-.204-2.625 5.367-2.625 5.98 0 .145 1.108.233 2.48.233 1.837 0 2.478-.088 2.478-.38 0-.204-.466-1.545-1.05-3.004-.583-1.429-1.137-2.712-1.283-2.829zm44.596-3.558c-.788-.788-2.771-1.196-3.53-.73-.466.292-.524.788-.524 3.792v3.5h.875c1.283 0 2.712-.67 3.47-1.633.934-1.167.759-3.88-.291-4.93zm39.608-.73c-.7 0-1.37.088-1.458.205-.117.087-.204 1.692-.204 3.529v3.325l1.108-.175c2.683-.467 3.558-1.4 3.558-3.82 0-1.11-.146-1.517-.846-2.217-.7-.671-1.108-.846-2.158-.846z"/></svg>