<svg xmlns="http://www.w3.org/2000/svg" viewBox="0 0 200 40" class="UserLogo variant-- "><title>Rocketium logo</title><defs><linearGradient id="user-logo-rocketium-a-" x1="14.774%" x2="85.23%" y1="85.28%" y2="14.624%"><stop offset="0%" stop-color="#3A1BFF"/><stop offset="17%" stop-color="#3233FC"/><stop offset="52%" stop-color="#1E70F4"/><stop offset="100%" stop-color="#00CCE9"/></linearGradient><linearGradient id="user-logo-rocketium-b-" x1="0%" x2="100%" y1="50%" y2="50%"><stop offset="24%" stop-color="#002EAD"/><stop offset="33%" stop-color="#0036B0"/><stop offset="47%" stop-color="#004CB8"/><stop offset="65%" stop-color="#0070C6"/><stop offset="85%" stop-color="#00A1D9"/><stop offset="100%" stop-color="#00CCE9"/></linearGradient><linearGradient id="user-logo-rocketium-a-" x1="14.774%" x2="85.23%" y1="85.28%" y2="14.624%"><stop offset="0%" stop-color="#3A1BFF"/><stop offset="17%" stop-color="#3233FC"/><stop offset="52%" stop-color="#1E70F4"/><stop offset="100%" stop-color="#00CCE9"/></linearGradient><linearGradient id="user-logo-rocketium-b-" x1="0%" x2="100%" y1="50%" y2="50%"><stop offset="24%" stop-color="#002EAD"/><stop offset="33%" stop-color="#0036B0"/><stop offset="47%" stop-color="#004CB8"/><stop offset="65%" stop-color="#0070C6"/><stop offset="85%" stop-color="#00A1D9"/><stop offset="100%" stop-color="#00CCE9"/></linearGradient><linearGradient id="user-logo-rocketium-a-" x1="14.774%" x2="85.23%" y1="85.28%" y2="14.624%"><stop offset="0%" stop-color="#3A1BFF"/><stop offset="17%" stop-color="#3233FC"/><stop offset="52%" stop-color="#1E70F4"/><stop offset="100%" stop-color="#00CCE9"/></linearGradient><linearGradient id="user-logo-rocketium-b-" x1="0%" x2="100%" y1="50%" y2="50%"><stop offset="24%" stop-color="#002EAD"/><stop offset="33%" stop-color="#0036B0"/><stop offset="47%" stop-color="#004CB8"/><stop offset="65%" stop-color="#0070C6"/><stop offset="85%" stop-color="#00A1D9"/><stop offset="100%" stop-color="#00CCE9"/></linearGradient></defs><g fill="none" fill-rule="evenodd"><g transform="translate(37 6)" fill="none"><circle cx="5.506" cy="5.849" r="5.135" fill="#00CCE9" fill-rule="nonzero"/><circle cx="5.506" cy="31.835" r="2.155" fill="#00CCE9" fill-rule="nonzero"/><path fill="url(&quot;#user-logo-rocketium-a-&quot;)" fill-rule="nonzero" d="M18.023 2.963c7.774 0 14.147 6.017 14.71 13.649h-1.211a11.79 11.79 0 01-.04 2.48h1.229c-.695 7.5-7.006 13.372-14.688 13.372S4.033 26.54 3.34 19.037h1.226a16.527 16.527 0 01-.023-2.479H3.314c.565-7.632 6.933-13.596 14.71-13.596"/><path d="M32.769 16.559c-.565-7.632-6.934-13.65-14.71-13.65-7.776 0-14.24 6.018-14.802 13.65h14.14c.423-4.507 3.423-8 7.06-8 3.636 0 6.635 3.493 7.06 8h1.252zM17.426 19.04c.52 4.371 3.47 7.721 7.03 7.721 3.562 0 6.512-3.35 7.032-7.721h1.258c-.696 7.5-7.006 13.37-14.687 13.37-7.682 0-14.085-5.872-14.78-13.373h11.546l2.601.003z" fill="none"/><path fill="#02005B" fill-rule="nonzero" d="M15.066 16.559H4.543a14.795 14.795 0 00.023 2.478H17.44c.51 3.718 3.046 6.544 6.097 6.544 3.418 0 6.19-3.546 6.19-7.92 0-4.375-2.774-7.921-6.191-7.921-3.127 0-5.712 2.968-6.131 6.82l-2.339-.001z"/><path fill="#FFFFFF" fill-rule="nonzero" d="M19.931 15.769s.202-2.365 2.015-2.168c1.814.197-.738-2.365-2.015-.495-1.144 1.676-.59 4.24 0 2.663z"/><path fill="#02005B" fill-rule="nonzero" d="M43.182 10.432c.506-.212 1.429-.32 2.07-.32v2.562c-.855 0-1.93.3-2.528.897-.598.626-.897 1.352-.897 2.177v5.36h-2.56V10.411h2.562v.833c.41-.335.865-.608 1.353-.812zM50.912 10.134a5.54 5.54 0 012.199.438 5.626 5.626 0 013 3 5.683 5.683 0 010 4.376 5.626 5.626 0 01-3 3 5.739 5.739 0 01-4.399 0 5.626 5.626 0 01-3-3 5.692 5.692 0 010-4.376 5.626 5.626 0 015.2-3.438zm0 2.562a3.065 3.065 0 00-2.178 5.23c.277.294.615.523.99.673.377.149.78.225 1.185.224.403.002.803-.073 1.178-.223a3.004 3.004 0 001.003-.673 3.066 3.066 0 000-4.334c-.626-.6-1.352-.9-2.178-.9v.003zM67.033 19.742a5.635 5.635 0 01-1.794 1.206 5.739 5.739 0 01-4.399 0 5.626 5.626 0 01-3-3 5.692 5.692 0 010-4.376 5.626 5.626 0 013-2.999 5.739 5.739 0 014.399 0c.67.283 1.279.693 1.794 1.207l-1.815 1.813a2.968 2.968 0 00-2.177-.9c-.825 0-1.551.3-2.177.897a3.066 3.066 0 000 4.334c.285.29.627.52 1.003.673.373.151.772.228 1.174.227.868 0 1.594-.299 2.178-.897l1.814 1.815zM72.158 15.771l5.338 5.338h-3.61l-3.543-3.545v3.545H67.78V6.163h2.562v7.792l3.522-3.523h3.63z"/><path fill="#02005B" fill-rule="nonzero" d="M84.691 17.052h-5.594c.144.331.355.629.619.875a3.004 3.004 0 002.178.897 2.993 2.993 0 001.555-.406l2.669 1.068a5.382 5.382 0 01-1.858 1.399 5.596 5.596 0 01-2.37.502 5.537 5.537 0 01-2.199-.439 5.626 5.626 0 01-3-3 5.683 5.683 0 010-4.376 5.626 5.626 0 013.004-2.999 5.739 5.739 0 014.398 0 5.632 5.632 0 013 3 5.55 5.55 0 01.438 2.2c.002.431-.048.861-.15 1.28h-2.69zm-2.797-4.359c-.826 0-1.552.3-2.178.897a2.898 2.898 0 00-.62.897h5.595a2.909 2.909 0 00-.62-.897 2.968 2.968 0 00-2.177-.897zM94.342 21.109h-2.35a3.393 3.393 0 01-1.365-.278 3.445 3.445 0 01-1.111-.758 3.686 3.686 0 01-.747-1.121 3.392 3.392 0 01-.278-1.366v-9.31l2.563-.64v4.078h2.135v2.562h-2.135v3.31a.929.929 0 00.277.683c.173.18.413.28.662.277H93.7l.641 2.563zM95.196 6.163h2.562v2.561h-2.562V6.163zm0 14.946V10.432h2.562v10.677h-2.562zM109.16 10.432v10.677h-2.563v-.811a5.04 5.04 0 01-1.302.8 4.099 4.099 0 01-1.626.31 4.404 4.404 0 01-3.363-1.473 4.843 4.843 0 01-.94-1.602 5.75 5.75 0 01-.33-1.964v-5.937h2.563v5.936c0 .67.249 1.253.747 1.75.459.475 1.095.739 1.755.727a2.411 2.411 0 001.772-.726 2.384 2.384 0 00.724-1.75v-5.937h2.563zM121.886 10.134c.597 0 1.12.114 1.57.342.437.218.814.54 1.099.939.294.42.511.89.64 1.388a6.54 6.54 0 01.212 1.708v6.598h-2.562V14.51a1.75 1.75 0 00-.534-1.281 1.804 1.804 0 00-2.562 0c-.347.335-.54.798-.534 1.281v6.598h-2.562V14.51a1.747 1.747 0 00-.534-1.281 1.56 1.56 0 00-.588-.406 1.9 1.9 0 00-.688-.13c-.527 0-.961.177-1.302.533-.348.335-.541.799-.535 1.281v6.598h-2.561V10.432h2.56v.94a6.653 6.653 0 011.303-.886c.428-.229.904-.35 1.388-.354.64 0 1.168.128 1.58.385.437.279.814.642 1.11 1.067a4.618 4.618 0 011.495-1.036 4.811 4.811 0 012.005-.414z"/><ellipse cx="24.421" cy="17.676" fill="url(&quot;#user-logo-rocketium-b-&quot;)" fill-rule="nonzero" rx="7.107" ry="9.077"/><ellipse cx="23.53" cy="17.979" fill="#FFFFFF" fill-rule="nonzero" rx="1.589" ry="2.331"/><ellipse cx="26.321" cy="21.864" fill="#FFFFFF" fill-rule="nonzero" rx="1" ry="1.036"/></g><path d="M0 0h200v40H0z" fill="none"/></g></svg>