<svg xmlns:xlink="http://www.w3.org/1999/xlink" class="ProductIcon ProductIcon--Climate " width="40" height="40" viewBox="0 0 40 40" fill="none" xmlns="http://www.w3.org/2000/svg"><title>Climate logo</title><path d="M33.24 21.09c-4.28 0-9.09-2.96-13.24-5.81-4.4-3.04-9.24-7.05-13.24-7.05C2.68 8.23 0 11.96 0 15.28v.28a20 20 0 1 0 40 0c-.13 2.68-2.03 5.53-6.76 5.53z" fill="url(&quot;#product-icon-climate--a&quot;)"></path><path d="M33.24 8.24c-4 0-8.84 4-13.24 7.04-4.15 2.85-8.96 5.8-13.24 5.8-4.73 0-6.63-2.84-6.76-5.52a20 20 0 1 0 40 0v-.28c0-3.32-2.67-7.05-6.76-7.04z" fill="url(&quot;#product-icon-climate--b&quot;)"></path><path d="M20 15.28c4.15 2.85 8.96 5.8 13.24 5.8 4.73 0 6.63-2.84 6.76-5.52a20 20 0 1 1-40 0c.13 2.68 2.03 5.53 6.76 5.53 4.28 0 9.09-2.96 13.24-5.81z" fill="url(&quot;#product-icon-climate--c&quot;)"></path><defs><linearGradient id="product-icon-climate--a" x1="20" y1="20.63" x2="20" y2="9.57" gradientUnits="userSpaceOnUse"><stop stop-color="#FFD748"></stop><stop offset=".21" stop-color="#FFD644"></stop><stop offset=".33" stop-color="#FFD438"></stop><stop offset=".45" stop-color="#FFD024"></stop><stop offset=".57" stop-color="#FFCB09"></stop><stop offset="1" stop-color="#FFC900"></stop></linearGradient><linearGradient id="product-icon-climate--b" x1="20" y1="9.56" x2="20" y2="21.9" gradientUnits="userSpaceOnUse"><stop stop-color="#009C00"></stop><stop offset="1" stop-color="#00BA18"></stop></linearGradient><linearGradient id="product-icon-climate--c" x1="20" y1="35.28" x2="20" y2="15.28" gradientUnits="userSpaceOnUse"><stop offset=".13" stop-color="#00CB1B"></stop><stop offset="1" stop-color="#00D924"></stop></linearGradient><linearGradient id="product-icon-climate--a" x1="20" y1="20.63" x2="20" y2="9.57" gradientUnits="userSpaceOnUse"><stop stop-color="#FFD748"></stop><stop offset=".21" stop-color="#FFD644"></stop><stop offset=".33" stop-color="#FFD438"></stop><stop offset=".45" stop-color="#FFD024"></stop><stop offset=".57" stop-color="#FFCB09"></stop><stop offset="1" stop-color="#FFC900"></stop></linearGradient><linearGradient id="product-icon-climate--b" x1="20" y1="9.56" x2="20" y2="21.9" gradientUnits="userSpaceOnUse"><stop stop-color="#009C00"></stop><stop offset="1" stop-color="#00BA18"></stop></linearGradient><linearGradient id="product-icon-climate--c" x1="20" y1="35.28" x2="20" y2="15.28" gradientUnits="userSpaceOnUse"><stop offset=".13" stop-color="#00CB1B"></stop><stop offset="1" stop-color="#00D924"></stop></linearGradient></defs></svg>